<svg id="Layer_2" data-name="Layer 2" xmlns="http://www.w3.org/2000/svg" xmlns:xlink="http://www.w3.org/1999/xlink" width="218.26" height="32" viewBox="0 0 218.26 32">
  <defs>
    <linearGradient id="linear-gradient" x1="-18.954" y1="68.25" x2="-18.944" y2="68.25" gradientUnits="objectBoundingBox">
      <stop offset="0" stop-color="#1d1c45"/>
      <stop offset="1" stop-color="#174489"/>
    </linearGradient>
    <linearGradient id="linear-gradient-2" x1="-0.001" y1="0.876" x2="0.584" y2="0.876" gradientUnits="objectBoundingBox">
      <stop offset="0" stop-color="#872166"/>
      <stop offset="1" stop-color="#4f2455"/>
    </linearGradient>
  </defs>
  <g id="Layer_1" data-name="Layer 1">
    <rect id="Rectangle_201" data-name="Rectangle 201" width="50.04" height="32" rx="4" transform="translate(112.22)" fill="#efefef"/>
    <rect id="Rectangle_202" data-name="Rectangle 202" width="50.04" height="32" rx="4" transform="translate(56.11)" fill="#efefef"/>
    <rect id="Rectangle_203" data-name="Rectangle 203" width="50.04" height="32" rx="4" fill="#efefef"/>
    <rect id="Rectangle_204" data-name="Rectangle 204" width="50.04" height="32" rx="4" transform="translate(168.22)" fill="#efefef"/>
    <path id="Path_863" data-name="Path 863" d="M96.62,16A9.6,9.6,0,1,1,93.8,9.2,9.58,9.58,0,0,1,96.62,16" fill="#f3941f" fill-rule="evenodd"/>
    <path id="Path_864" data-name="Path 864" d="M84.8,16a9.59,9.59,0,1,1-9.59-9.61A9.59,9.59,0,0,1,84.8,16" fill="#e81f27" fill-rule="evenodd"/>
    <path id="Path_865" data-name="Path 865" d="M81.13,8.44a9.62,9.62,0,0,0,0,15.12,9.62,9.62,0,0,0,0-15.12" fill="#ef4e23" fill-rule="evenodd"/>
    <g id="Group_532" data-name="Group 532">
      <path id="Path_866" data-name="Path 866" d="M23.85,10.63,21.54,21.4H18.75l2.31-10.77ZM35.6,17.58l1.47-4,.85,4Zm3.12,3.82H41.3L39.05,10.63H36.66a1.28,1.28,0,0,0-1.19.79l-4.19,10h2.93l.59-1.61h3.58Zm-7.29-3.52c0-2.84-3.94-3-3.92-4.27,0-.38.38-.79,1.19-.9a5.33,5.33,0,0,1,2.75.48l.49-2.28a7.55,7.55,0,0,0-2.61-.48c-2.76,0-4.7,1.47-4.72,3.56,0,1.55,1.39,2.42,2.45,2.93s1.45.87,1.44,1.34c0,.72-.86,1-1.67,1A5.7,5.7,0,0,1,24,18.63L23.46,21a8.59,8.59,0,0,0,3.11.58c2.93,0,4.85-1.45,4.86-3.69ZM19.86,10.63,15.33,21.4H12.38l-2.23-8.59a1.17,1.17,0,0,0-.66-1,11.74,11.74,0,0,0-2.76-.92l.07-.31h4.75a1.3,1.3,0,0,1,1.29,1.1L14,18l2.9-7.33Z" fill-rule="evenodd" fill="url(#linear-gradient)"/>
    </g>
    <path id="Skrill_logo" d="M27.032,6.8l2.736-.487v10.5H27.032Zm3.994,0V16.807h2.736V6.314ZM23.142,16.807h2.736V9.132H23.142ZM5.062,10.216c-.348-.023-1.148-.075-1.148-.794,0-.87,1.154-.87,1.583-.87a9.584,9.584,0,0,1,2.446.435s.394.139.725.278l.029.006V6.894l-.041-.012a9.773,9.773,0,0,0-3.582-.568C1.99,6.314.9,8.111.9,9.648c0,.887.383,2.974,3.913,3.217.3.017,1.1.064,1.1.812,0,.614-.649.98-1.745.98a8.573,8.573,0,0,1-3.067-.6v2.452a14.241,14.241,0,0,0,3.646.417c3.014,0,4.365-1.7,4.365-3.385C9.108,11.63,7.6,10.39,5.062,10.216ZM21.6,9.022c-2.527.081-3.809,1.217-3.809,3.472v4.319h2.759V13.288c0-1.351.174-1.93,1.78-1.983V9.056a4.214,4.214,0,0,0-.73-.035Zm-7.42.1A9.446,9.446,0,0,1,12.621,11.8V6.314L9.8,6.871v9.936h2.823V13.734a10.746,10.746,0,0,1,1.223,3.072h3.38a22,22,0,0,0-1.8-3.953A12.469,12.469,0,0,0,17.409,9.12H14.181ZM24.5,8.4A1.348,1.348,0,1,0,23.16,7.051,1.351,1.351,0,0,0,24.5,8.4Z" transform="translate(119.909 4.73)" fill="url(#linear-gradient-2)"/>
  </g>
  <g id="PayPal" transform="translate(1123.752 -15.005)">
    <path id="Path_871" data-name="Path 871" d="M-913.775,39.734a.532.532,0,0,0-.525.449l-.873,5.535a.532.532,0,0,1,.525-.449h2.557a5.223,5.223,0,0,0,5.157-4.422,4.284,4.284,0,0,0,.051-.574,4.855,4.855,0,0,0-2.265-.539Z" transform="translate(-17.261 -14.265)" fill="#001c64"/>
    <path id="Path_872" data-name="Path 872" d="M-911.95,42.359a4.3,4.3,0,0,1-.05.574,5.223,5.223,0,0,1-5.157,4.422h-2.558a.531.531,0,0,0-.525.449l-.8,5.086-.5,3.191a.431.431,0,0,0,.1.348.432.432,0,0,0,.328.151h2.776a.532.532,0,0,0,.525-.449l.731-4.637a.532.532,0,0,1,.526-.449h1.634a5.224,5.224,0,0,0,5.157-4.422,4.054,4.054,0,0,0-2.181-4.264Z" transform="translate(-12.194 -16.351)" fill="#0070e0"/>
    <path id="Path_873" data-name="Path 873" d="M-934.189,21.779a.532.532,0,0,0-.525.449l-2.178,13.813a.432.432,0,0,0,.427.5h3.23l.8-5.086.873-5.535a.532.532,0,0,1,.525-.449h4.628a4.856,4.856,0,0,1,2.264.539,4.263,4.263,0,0,0-4.495-4.229Z" transform="translate(0 0)" fill="#003087"/>
  </g>
</svg>
